<mxfile host="Electron" agent="Mozilla/5.0 (Macintosh; Intel Mac OS X 10_15_7) AppleWebKit/537.36 (KHTML, like Gecko) draw.io/26.2.2 Chrome/134.0.6998.178 Electron/35.1.2 Safari/537.36" version="26.2.2">
  <diagram name="Page-1" id="2vbySjL7ylKazzl97Wm8">
    <mxGraphModel dx="441" dy="340" grid="1" gridSize="10" guides="1" tooltips="1" connect="1" arrows="1" fold="1" page="1" pageScale="1" pageWidth="1654" pageHeight="1169" math="0" shadow="0">
      <root>
        <mxCell id="0" />
        <mxCell id="1" parent="0" />
        <mxCell id="i7utI0egCcplhe4ctAtE-1" value="DictionaryClientUI" style="shape=umlLifeline;perimeter=lifelinePerimeter;whiteSpace=wrap;html=1;container=1;dropTarget=0;collapsible=0;recursiveResize=0;outlineConnect=0;portConstraint=eastwest;newEdgeStyle={&quot;curved&quot;:0,&quot;rounded&quot;:0};" vertex="1" parent="1">
          <mxGeometry x="140" y="81" width="100" height="300" as="geometry" />
        </mxCell>
        <mxCell id="i7utI0egCcplhe4ctAtE-4" value="" style="html=1;points=[[0,0,0,0,5],[0,1,0,0,-5],[1,0,0,0,5],[1,1,0,0,-5]];perimeter=orthogonalPerimeter;outlineConnect=0;targetShapes=umlLifeline;portConstraint=eastwest;newEdgeStyle={&quot;curved&quot;:0,&quot;rounded&quot;:0};" vertex="1" parent="i7utI0egCcplhe4ctAtE-1">
          <mxGeometry x="45" y="60" width="10" height="30" as="geometry" />
        </mxCell>
        <mxCell id="i7utI0egCcplhe4ctAtE-11" value="" style="html=1;points=[[0,0,0,0,5],[0,1,0,0,-5],[1,0,0,0,5],[1,1,0,0,-5]];perimeter=orthogonalPerimeter;outlineConnect=0;targetShapes=umlLifeline;portConstraint=eastwest;newEdgeStyle={&quot;curved&quot;:0,&quot;rounded&quot;:0};" vertex="1" parent="i7utI0egCcplhe4ctAtE-1">
          <mxGeometry x="45" y="120" width="10" height="80" as="geometry" />
        </mxCell>
        <mxCell id="i7utI0egCcplhe4ctAtE-2" value="Client" style="shape=umlLifeline;perimeter=lifelinePerimeter;whiteSpace=wrap;html=1;container=1;dropTarget=0;collapsible=0;recursiveResize=0;outlineConnect=0;portConstraint=eastwest;newEdgeStyle={&quot;curved&quot;:0,&quot;rounded&quot;:0};" vertex="1" parent="1">
          <mxGeometry x="330" y="139" width="100" height="300" as="geometry" />
        </mxCell>
        <mxCell id="i7utI0egCcplhe4ctAtE-15" value="" style="html=1;points=[[0,0,0,0,5],[0,1,0,0,-5],[1,0,0,0,5],[1,1,0,0,-5]];perimeter=orthogonalPerimeter;outlineConnect=0;targetShapes=umlLifeline;portConstraint=eastwest;newEdgeStyle={&quot;curved&quot;:0,&quot;rounded&quot;:0};" vertex="1" parent="i7utI0egCcplhe4ctAtE-2">
          <mxGeometry x="45" y="71" width="10" height="159" as="geometry" />
        </mxCell>
        <mxCell id="i7utI0egCcplhe4ctAtE-3" value="MessageProrocal" style="shape=umlLifeline;perimeter=lifelinePerimeter;whiteSpace=wrap;html=1;container=1;dropTarget=0;collapsible=0;recursiveResize=0;outlineConnect=0;portConstraint=eastwest;newEdgeStyle={&quot;curved&quot;:0,&quot;rounded&quot;:0};" vertex="1" parent="1">
          <mxGeometry x="470" y="90" width="100" height="300" as="geometry" />
        </mxCell>
        <mxCell id="i7utI0egCcplhe4ctAtE-19" value="" style="html=1;points=[[0,0,0,0,5],[0,1,0,0,-5],[1,0,0,0,5],[1,1,0,0,-5]];perimeter=orthogonalPerimeter;outlineConnect=0;targetShapes=umlLifeline;portConstraint=eastwest;newEdgeStyle={&quot;curved&quot;:0,&quot;rounded&quot;:0};" vertex="1" parent="i7utI0egCcplhe4ctAtE-3">
          <mxGeometry x="45" y="140" width="10" height="40" as="geometry" />
        </mxCell>
        <mxCell id="i7utI0egCcplhe4ctAtE-8" value="" style="endArrow=open;endFill=1;endSize=12;html=1;rounded=0;entryX=1.018;entryY=0.988;entryDx=0;entryDy=0;entryPerimeter=0;" edge="1" parent="1" source="i7utI0egCcplhe4ctAtE-4" target="i7utI0egCcplhe4ctAtE-10">
          <mxGeometry width="160" relative="1" as="geometry">
            <mxPoint x="200" y="161" as="sourcePoint" />
            <mxPoint x="290" y="161" as="targetPoint" />
          </mxGeometry>
        </mxCell>
        <mxCell id="i7utI0egCcplhe4ctAtE-10" value="new Client(host, port)" style="text;html=1;align=center;verticalAlign=middle;resizable=0;points=[];autosize=1;strokeColor=none;fillColor=none;" vertex="1" parent="1">
          <mxGeometry x="190" y="131" width="140" height="30" as="geometry" />
        </mxCell>
        <mxCell id="i7utI0egCcplhe4ctAtE-14" value="" style="endArrow=open;endFill=1;endSize=12;html=1;rounded=0;" edge="1" parent="1" source="i7utI0egCcplhe4ctAtE-11">
          <mxGeometry width="160" relative="1" as="geometry">
            <mxPoint x="200" y="231" as="sourcePoint" />
            <mxPoint x="374.5" y="230.75" as="targetPoint" />
          </mxGeometry>
        </mxCell>
        <mxCell id="i7utI0egCcplhe4ctAtE-16" value="query(word)" style="text;html=1;align=center;verticalAlign=middle;resizable=0;points=[];autosize=1;strokeColor=none;fillColor=none;" vertex="1" parent="1">
          <mxGeometry x="240" y="208" width="90" height="30" as="geometry" />
        </mxCell>
        <mxCell id="i7utI0egCcplhe4ctAtE-18" value="" style="endArrow=open;endFill=1;endSize=12;html=1;rounded=0;" edge="1" parent="1" target="i7utI0egCcplhe4ctAtE-19">
          <mxGeometry width="160" relative="1" as="geometry">
            <mxPoint x="385" y="240" as="sourcePoint" />
            <mxPoint x="505" y="240" as="targetPoint" />
          </mxGeometry>
        </mxCell>
        <mxCell id="i7utI0egCcplhe4ctAtE-20" value="" style="endArrow=open;endFill=1;endSize=12;html=1;rounded=0;" edge="1" parent="1" target="i7utI0egCcplhe4ctAtE-11">
          <mxGeometry width="160" relative="1" as="geometry">
            <mxPoint x="20" y="220" as="sourcePoint" />
            <mxPoint x="180" y="220" as="targetPoint" />
          </mxGeometry>
        </mxCell>
        <mxCell id="i7utI0egCcplhe4ctAtE-21" value="user click &quot;query&quot;, type word" style="text;html=1;align=center;verticalAlign=middle;resizable=0;points=[];autosize=1;strokeColor=none;fillColor=none;" vertex="1" parent="1">
          <mxGeometry x="10" y="190" width="170" height="30" as="geometry" />
        </mxCell>
        <mxCell id="i7utI0egCcplhe4ctAtE-22" value="queryMessage(word)" style="text;html=1;align=center;verticalAlign=middle;resizable=0;points=[];autosize=1;strokeColor=none;fillColor=none;" vertex="1" parent="1">
          <mxGeometry x="380" y="208" width="140" height="30" as="geometry" />
        </mxCell>
        <mxCell id="i7utI0egCcplhe4ctAtE-24" value="return queryMessage" style="html=1;verticalAlign=bottom;endArrow=open;dashed=1;endSize=8;curved=0;rounded=0;" edge="1" parent="1">
          <mxGeometry x="-0.0024" relative="1" as="geometry">
            <mxPoint x="515.02" y="260" as="sourcePoint" />
            <mxPoint x="384.98" y="260" as="targetPoint" />
            <mxPoint as="offset" />
          </mxGeometry>
        </mxCell>
        <mxCell id="i7utI0egCcplhe4ctAtE-25" value="ClientHandler" style="shape=umlLifeline;perimeter=lifelinePerimeter;whiteSpace=wrap;html=1;container=1;dropTarget=0;collapsible=0;recursiveResize=0;outlineConnect=0;portConstraint=eastwest;newEdgeStyle={&quot;curved&quot;:0,&quot;rounded&quot;:0};" vertex="1" parent="1">
          <mxGeometry x="620" y="90" width="100" height="300" as="geometry" />
        </mxCell>
        <mxCell id="i7utI0egCcplhe4ctAtE-27" value="" style="html=1;points=[[0,0,0,0,5],[0,1,0,0,-5],[1,0,0,0,5],[1,1,0,0,-5]];perimeter=orthogonalPerimeter;outlineConnect=0;targetShapes=umlLifeline;portConstraint=eastwest;newEdgeStyle={&quot;curved&quot;:0,&quot;rounded&quot;:0};" vertex="1" parent="i7utI0egCcplhe4ctAtE-25">
          <mxGeometry x="45" y="199" width="10" height="80" as="geometry" />
        </mxCell>
        <mxCell id="i7utI0egCcplhe4ctAtE-26" value="" style="endArrow=open;endFill=1;endSize=12;html=1;rounded=0;" edge="1" parent="1" source="i7utI0egCcplhe4ctAtE-15" target="i7utI0egCcplhe4ctAtE-27">
          <mxGeometry width="160" relative="1" as="geometry">
            <mxPoint x="390.0000000000001" y="299.9999999999999" as="sourcePoint" />
            <mxPoint x="670" y="299.9999999999999" as="targetPoint" />
            <Array as="points">
              <mxPoint x="530" y="300" />
            </Array>
          </mxGeometry>
        </mxCell>
        <mxCell id="i7utI0egCcplhe4ctAtE-28" value="send queryMessage" style="text;html=1;align=center;verticalAlign=middle;resizable=0;points=[];autosize=1;strokeColor=none;fillColor=none;" vertex="1" parent="1">
          <mxGeometry x="445" y="274" width="130" height="30" as="geometry" />
        </mxCell>
        <mxCell id="i7utI0egCcplhe4ctAtE-29" value="DictionaryHandler" style="shape=umlLifeline;perimeter=lifelinePerimeter;whiteSpace=wrap;html=1;container=1;dropTarget=0;collapsible=0;recursiveResize=0;outlineConnect=0;portConstraint=eastwest;newEdgeStyle={&quot;curved&quot;:0,&quot;rounded&quot;:0};" vertex="1" parent="1">
          <mxGeometry x="760" y="90" width="100" height="300" as="geometry" />
        </mxCell>
        <mxCell id="i7utI0egCcplhe4ctAtE-30" value="" style="html=1;points=[[0,0,0,0,5],[0,1,0,0,-5],[1,0,0,0,5],[1,1,0,0,-5]];perimeter=orthogonalPerimeter;outlineConnect=0;targetShapes=umlLifeline;portConstraint=eastwest;newEdgeStyle={&quot;curved&quot;:0,&quot;rounded&quot;:0};" vertex="1" parent="i7utI0egCcplhe4ctAtE-29">
          <mxGeometry x="45" y="199" width="10" height="80" as="geometry" />
        </mxCell>
        <mxCell id="i7utI0egCcplhe4ctAtE-31" value="" style="endArrow=open;endFill=1;endSize=12;html=1;rounded=0;" edge="1" parent="1">
          <mxGeometry width="160" relative="1" as="geometry">
            <mxPoint x="675" y="320" as="sourcePoint" />
            <mxPoint x="805" y="320" as="targetPoint" />
          </mxGeometry>
        </mxCell>
      </root>
    </mxGraphModel>
  </diagram>
</mxfile>
